<?xml version="1.0" encoding="UTF-8" standalone="no"?>
<svg
   xmlns:dc="http://purl.org/dc/elements/1.1/"
   xmlns:cc="http://creativecommons.org/ns#"
   xmlns:rdf="http://www.w3.org/1999/02/22-rdf-syntax-ns#"
   xmlns:svg="http://www.w3.org/2000/svg"
   xmlns="http://www.w3.org/2000/svg"
   xmlns:sodipodi="http://sodipodi.sourceforge.net/DTD/sodipodi-0.dtd"
   xmlns:inkscape="http://www.inkscape.org/namespaces/inkscape"
   width="31.436438mm"
   height="22.586077mm"
   viewBox="0 0 31.436438 22.586077"
   version="1.1"
   id="svg8"
   inkscape:version="1.0.1 (3bc2e813f5, 2020-09-07)"
   sodipodi:docname="Logo perhutani.svg">
  <defs
     id="defs2">
    <clipPath
       clipPathUnits="userSpaceOnUse"
       id="clipPath849">
      <path
         d="M 0,2000 H 2000 V 0 H 0 Z"
         id="path847" />
    </clipPath>
  </defs>
  <sodipodi:namedview
     id="base"
     pagecolor="#ffffff"
     bordercolor="#666666"
     borderopacity="1.0"
     inkscape:pageopacity="0.0"
     inkscape:pageshadow="2"
     inkscape:zoom="0.66603375"
     inkscape:cx="-85.313409"
     inkscape:cy="-33.862381"
     inkscape:document-units="mm"
     inkscape:current-layer="layer1"
     inkscape:document-rotation="0"
     showgrid="false"
     fit-margin-top="0"
     fit-margin-left="0"
     fit-margin-right="0"
     fit-margin-bottom="0"
     inkscape:window-width="1366"
     inkscape:window-height="705"
     inkscape:window-x="-8"
     inkscape:window-y="-8"
     inkscape:window-maximized="1" />
  <metadata
     id="metadata5">
    <rdf:RDF>
      <cc:Work
         rdf:about="">
        <dc:format>image/svg+xml</dc:format>
        <dc:type
           rdf:resource="http://purl.org/dc/dcmitype/StillImage" />
        <dc:title></dc:title>
      </cc:Work>
    </rdf:RDF>
  </metadata>
  <g
     inkscape:label="Layer 1"
     inkscape:groupmode="layer"
     id="layer1"
     transform="translate(-73.06764,-158.818)">
    <g
       id="g845"
       clip-path="url(#clipPath849)"
       transform="matrix(0.01824478,0,0,-0.01824478,70.449853,188.3557)">
      <g
         id="g851"
         transform="translate(993.0254,1600.8223)">
        <path
           d="M 0,0 C 8.882,8.299 19.509,15.085 31.384,18.145 39.933,1.763 42.61,-17.58 38.918,-35.675 36.424,-47.716 30.203,-59.458 19.891,-66.527 11.892,-72.198 2.045,-74.46 -7.601,-74.809 -15.085,-66.144 -20.757,-55.35 -20.873,-43.675 -21.272,-26.811 -11.958,-11.26 0,0"
           style="fill:#8cd50b;fill-opacity:1;fill-rule:nonzero;stroke:none"
           id="path853" />
      </g>
      <g
         id="g855"
         transform="translate(889.5596,1610.8677)">
        <path
           d="m 0,0 c 17.363,-14.021 30.47,-32.698 40.382,-52.556 11.974,-24.665 19.609,-52.556 15.6,-80.081 -2.661,-18.877 -12.707,-36.74 -28.19,-48.016 -9.197,-6.819 -19.741,-11.758 -30.735,-14.852 -19.559,5.405 -37.654,18.212 -47.184,36.406 -8.499,15.934 -10.346,34.628 -8.349,52.341 2.411,20.872 9.513,41.03 19.509,59.425 C -29.121,-29.305 -16.365,-12.59 0,0"
           style="fill:#8cd50b;fill-opacity:1;fill-rule:nonzero;stroke:none"
           id="path857" />
      </g>
      <g
         id="g859"
         transform="translate(1096.1416,1574.228)">
        <path
           d="M 0,0 C 22.735,16.632 49.778,28.34 78.085,30.187 87.199,-0.05 85.387,-32.98 75.891,-62.901 67.957,-87.366 53.238,-111 30.303,-123.822 c -18.977,-10.877 -42.029,-12.009 -63.018,-7.335 -11.974,18.86 -18.111,42.078 -13.603,64.265 C -40.947,-39.334 -22.07,-16.382 0,0"
           style="fill:#8cd50b;fill-opacity:1;fill-rule:nonzero;stroke:none"
           id="path861" />
      </g>
      <g
         id="g863"
         transform="translate(734.5359,1497.1074)">
        <path
           d="M 0,0 C -2.61,16 -0.848,32.848 5.805,47.683 23.667,43.708 39.949,33.379 51.658,19.376 59.542,9.829 65.114,-2.378 64.066,-15.002 63.351,-25.33 58.045,-34.71 51.293,-42.328 40.632,-42.91 29.405,-41.413 20.424,-35.243 8.615,-27.409 2.246,-13.622 0,0"
           style="fill:#8cd50b;fill-opacity:1;fill-rule:nonzero;stroke:none"
           id="path865" />
      </g>
      <g
         id="g867"
         transform="translate(1232.1553,1496.342)">
        <path
           d="m 0,0 c 21.92,10.345 48.813,6.437 68.788,-6.553 -5.971,-15.9 -17.33,-29.654 -31.467,-38.984 -10.727,-6.985 -24.05,-10.961 -36.789,-8.2 -10.961,2.146 -20.291,8.948 -27.891,16.848 C -24.1,-21.438 -14.604,-6.819 0,0"
           style="fill:#8cd50b;fill-opacity:1;fill-rule:nonzero;stroke:none"
           id="path869" />
      </g>
      <g
         id="g871"
         transform="translate(988.8174,1492.1343)">
        <path
           d="m 0,0 c 14.902,-9.979 26.195,-25.063 32.383,-41.845 4.389,-12.125 5.487,-26.245 -0.533,-38.02 -4.623,-9.397 -13.322,-15.916 -22.469,-20.523 -11.925,2.045 -24.3,7.434 -30.619,18.311 -7.834,13.222 -6.204,29.721 -1.746,43.824 C -18.377,-23.983 -10.761,-10.528 0,0"
           style="fill:#8cd50b;fill-opacity:1;fill-rule:nonzero;stroke:none"
           id="path873" />
      </g>
      <g
         id="g875"
         transform="translate(670.9202,1360.8281)">
        <path
           d="M 0,0 C -7.767,29.587 -8.432,61.586 1.114,90.842 36.79,87.232 69.87,68.688 94.917,43.541 111.616,26.477 124.804,4.423 126.118,-19.892 127.365,-38.919 120.064,-57.53 108.854,-72.614 86.667,-77.837 61.953,-76.256 42.444,-63.667 20.108,-49.53 6.752,-24.931 0,0"
           style="fill:#8cd50b;fill-opacity:1;fill-rule:nonzero;stroke:none"
           id="path877" />
      </g>
      <g
         id="g879"
         transform="translate(1095.0439,1390.7144)">
        <path
           d="M 0,0 C 8.581,20.091 28.689,33.962 49.845,37.871 55.865,22.337 56.299,4.707 51.192,-11.143 47.732,-21.87 40.664,-31.965 30.22,-36.805 22.752,-40.448 14.237,-40.88 6.104,-40.165 -2.362,-28.839 -5.788,-13.289 0,0"
           style="fill:#8cd50b;fill-opacity:1;fill-rule:nonzero;stroke:none"
           id="path881" />
      </g>
      <g
         id="g883"
         transform="translate(1271.2393,1407.0801)">
        <path
           d="m 0,0 c 30.951,12.507 66.394,15.285 98.394,5.123 0.065,-32.049 -11.144,-63.782 -30.071,-89.512 -14.919,-20.24 -36.656,-36.739 -61.986,-40.548 -22.686,-3.642 -45.67,3.559 -65.064,15.118 -4.789,20.258 -4.457,42.344 4.557,61.404 C -43.725,-25.662 -22.785,-9.297 0,0"
           style="fill:#8cd50b;fill-opacity:1;fill-rule:nonzero;stroke:none"
           id="path885" />
      </g>
      <g
         id="g887"
         transform="translate(839.4824,1397.5337)">
        <path
           d="M 0,0 C 22.802,-6.537 42.876,-23.8 51.857,-45.87 58.644,-61.937 53.238,-81.978 39.434,-92.439 27.891,-93.004 15.684,-89.96 7.019,-81.978 -1.73,-74.16 -6.337,-62.718 -8.134,-51.325 -10.728,-33.928 -7.967,-15.717 0,0"
           style="fill:#8cd50b;fill-opacity:1;fill-rule:nonzero;stroke:none"
           id="path889" />
      </g>
      <g
         id="g891"
         transform="translate(599.8367,1269.4204)">
        <path
           d="M 0,0 C 12.906,13.854 30.769,22.885 49.479,25.58 62.086,27.342 75.891,25.13 85.869,16.748 93.154,10.86 97.645,2.345 100.638,-6.37 92.555,-20.707 77.67,-31.684 60.822,-32.033 36.855,-32.598 13.804,-19.177 0,0"
           style="fill:#8cd50b;fill-opacity:1;fill-rule:nonzero;stroke:none"
           id="path893" />
      </g>
      <g
         id="g895"
         transform="translate(1324.3115,1247.749)">
        <path
           d="M 0,0 C 7.334,9.297 17.679,17.047 29.804,18.045 44.955,19.442 59.291,11.875 70.451,2.262 81.395,-7.268 90.31,-19.309 95.299,-32.997 80.347,-42.277 62.235,-45.986 44.806,-44.456 31.467,-43.275 17.762,-37.97 9.379,-27.126 3.242,-19.459 0.698,-9.63 0,0"
           style="fill:#8cd50b;fill-opacity:1;fill-rule:nonzero;stroke:none"
           id="path897" />
      </g>
      <g
         id="g899"
         transform="translate(1182.2764,1223.0347)">
        <path
           d="m 0,0 c 16.782,14.153 38.187,23.899 60.474,22.951 26.66,-0.814 51.042,-15.018 69.735,-33.263 21.588,-21.321 38.137,-48.514 44.258,-78.434 -28.458,-12.923 -60.972,-15.052 -91.558,-10.096 -26.028,4.507 -52.506,15.634 -68.855,37.221 C 0.698,-44.29 -3.026,-21.289 0,0"
           style="fill:#8cd50b;fill-opacity:1;fill-rule:nonzero;stroke:none"
           id="path901" />
      </g>
      <g
         id="g903"
         transform="translate(705.614,1229.6038)">
        <path
           d="m 0,0 c 22.735,11.676 49.047,18.728 74.61,13.887 17.696,-3.242 33.779,-13.321 45.021,-27.259 1.165,-1.646 2.878,-3.076 3.36,-5.122 -2.695,-22.303 -14.27,-43.825 -32.764,-56.913 -22.986,-16.549 -52.623,-20.79 -80.281,-18.412 -27.259,2.611 -54.619,11.094 -76.522,27.908 C -53.254,-36.839 -27.908,-14.736 0,0"
           style="fill:#8cd50b;fill-opacity:1;fill-rule:nonzero;stroke:none"
           id="path905" />
      </g>
      <g
         id="g907"
         transform="translate(852.2383,1177.9297)">
        <path
           d="M 0,0 C 12.191,14.536 32.232,19.708 50.561,17.995 55.434,7.8 58.677,-3.742 56.365,-15.068 53.97,-28.074 44.923,-38.869 34.195,-46.086 20.407,-55.367 3.826,-60.373 -12.772,-60.456 -17.513,-39.833 -14.004,-16.398 0,0"
           style="fill:#8cd50b;fill-opacity:1;fill-rule:nonzero;stroke:none"
           id="path909" />
      </g>
      <g
         id="g911"
         transform="translate(1132.0986,1157.5557)">
        <path
           d="m 0,0 c 6.803,3.409 15.052,3.609 22.486,2.362 13.971,-2.595 24.45,-13.971 30.337,-26.328 8.365,-17.696 10.993,-38.369 6.119,-57.429 C 35.575,-79.699 13.438,-65.911 1.048,-46.136 -7.717,-32.432 -8.498,-14.003 0,0"
           style="fill:#8cd50b;fill-opacity:1;fill-rule:nonzero;stroke:none"
           id="path913" />
      </g>
      <g
         id="g915"
         transform="translate(1193.7695,1396.7188)">
        <path
           d="m 0,0 c 1.846,2.478 4.207,5.289 7.617,5.222 4.324,-3.326 2.411,-9.53 1.297,-13.97 -9.048,-26.911 -21.504,-52.623 -36.557,-76.672 -27.375,-44.456 -64.463,-82.078 -90.724,-127.248 -14.637,-25.147 -25.464,-52.54 -31.401,-81.03 -5.123,-27.592 -5.172,-55.949 -2.428,-83.807 -32.182,8.649 -63.217,21.205 -92.705,36.673 0.682,36.939 11.193,73.495 29.755,105.395 -16.683,23.101 -36.608,43.674 -52.624,67.274 -10.926,16.083 -19.376,34.578 -20.158,54.269 -0.166,2.778 0.65,6.803 4.192,6.77 4.324,-3.177 5.821,-8.749 8.914,-12.973 20.907,-33.546 52.839,-57.812 84.19,-80.946 38.585,44.756 90.609,74.759 132.121,116.421 19.759,19.658 36.972,42.095 49.496,67.059 C -5.955,-11.742 -3.742,-5.455 0,0"
           style="fill:#016237;fill-opacity:1;fill-rule:nonzero;stroke:none"
           id="path917" />
      </g>
      <g
         id="g919"
         transform="translate(1005.749,1348.1543)">
        <path
           d="m 0,0 c 12.706,4.108 26.843,-1.347 35.226,-11.31 15.866,-18.377 17.646,-46.851 5.937,-67.823 -6.121,-10.977 -17.197,-20.058 -30.17,-20.607 -13.322,-0.832 -25.496,7.733 -32.265,18.71 -12.74,20.441 -11.975,48.997 2.977,68.107 C -13.589,-7.002 -7.302,-2.196 0,0"
           style="fill:#016237;fill-opacity:1;fill-rule:nonzero;stroke:none"
           id="path921" />
      </g>
      <g
         id="g923"
         transform="translate(757.1394,1073.0835)">
        <path
           d="m 0,0 c 41.246,6.703 85.42,3.027 122.574,-17.23 46.137,-26.195 93.42,-52.223 145.412,-64.647 28.855,-6.736 58.493,-9.214 87.98,-11.26 15.601,-1.148 31.834,-0.549 46.618,-6.453 10.578,-4.108 17.963,-14.386 19.509,-25.496 0.449,-2.046 -1.529,-3.526 -3.159,-4.274 -31.85,-16.482 -67.026,-26.328 -102.7,-29.555 -56.615,-5.222 -113.628,5.439 -167.032,23.933 -6.719,2.295 -13.738,6.22 -21.022,4.075 -3.876,-0.865 -6.37,-4.075 -8.399,-7.218 50.726,-31.135 110.25,-46.852 169.576,-47.982 63.117,-1.265 126.932,14.136 181.285,46.551 35.325,21.073 66.609,49.38 89.394,83.74 5.788,8.5 10.096,18.328 18.363,24.848 11.774,10.012 29.237,12.141 43.307,6.005 2.612,-0.916 3.011,-4.109 1.747,-6.288 -35.392,-91.324 -104.863,-168.777 -191.63,-214.148 -67.341,-35.493 -144.795,-51.625 -220.685,-45.472 -34.295,2.977 -68.555,8.965 -101.037,20.558 -46.585,15.683 -90.46,39.616 -128.396,70.934 -48.765,39.982 -87.965,91.374 -113.994,148.786 C -91.824,-25.862 -46.902,-7.717 0,0"
           style="fill:#016237;fill-opacity:1;fill-rule:nonzero;stroke:none"
           id="path925" />
      </g>
      <g
         id="g927"
         transform="translate(446.7424,543.8154)">
        <path
           d="m 0,0 c -11.742,-5.921 -16.016,-19.625 -17.979,-31.7 21.239,-0.033 42.478,-0.016 63.716,-0.016 -0.915,8.764 -2.844,17.928 -8.598,24.881 C 28.407,3.809 12.008,5.605 0,0 m -224.311,63.716 c 0.034,-22.736 0.017,-45.455 0,-68.19 13.605,0.249 27.309,-0.798 40.848,0.831 11.243,1.397 22.951,7.485 26.976,18.694 5.372,14.852 2.878,35.426 -12.473,43.326 -17.148,8.482 -36.956,4.59 -55.351,5.339 m -78.95,62.102 h 91.391 c 22.586,-0.15 45.52,1.164 67.657,-4.291 21.571,-4.923 42.527,-16.166 55.384,-34.627 15.949,-22.868 19.01,-52.706 14.004,-79.583 13.937,22.304 38.635,36.308 64.147,40.898 26.229,4.524 54.32,2.495 78.419,-9.38 20.291,-9.93 36.223,-27.758 44.706,-48.598 8.315,-19.459 9.363,-40.964 9.43,-61.836 -46.752,-0.033 -93.52,0.033 -140.272,-0.033 0.965,-11.609 2.479,-24.283 10.479,-33.397 8.897,-9.863 24.298,-10.761 36.09,-6.27 7.302,2.677 12.158,9.381 13.871,16.781 25.729,0.034 51.442,0.017 77.154,0 -4.873,-21.105 -19.226,-39.184 -37.488,-50.477 -26.71,-16.681 -59.857,-20.855 -90.542,-15.767 -24.548,3.992 -48.016,16.716 -62.951,36.873 -19.925,26.66 -24.864,62.319 -18.577,94.468 -10.445,-13.871 -25.563,-23.734 -41.895,-29.272 -29.538,-10.528 -61.305,-7.285 -92.04,-7.834 -0.017,-29.604 0.033,-59.224 -0.017,-88.846 -26.328,0.034 -52.639,0 -78.95,0.017 z"
           style="fill:#016237;fill-opacity:1;fill-rule:nonzero;stroke:none"
           id="path929" />
      </g>
      <g
         id="g931"
         transform="translate(747.0427,668.4858)">
        <path
           d="m 0,0 c 25.281,-0.016 50.544,0.033 75.824,-0.033 0.034,-33.081 -0.149,-66.177 0.1,-99.257 10.146,12.356 24.698,21.021 40.598,23.267 18.195,2.595 37.737,0.183 53.603,-9.546 12.109,-7.402 21.024,-19.31 25.962,-32.515 4.758,-12.507 6.437,-25.979 6.487,-39.301 0.034,-41.23 -0.066,-82.46 0.05,-123.69 -25.297,-0.166 -50.577,-0.049 -75.874,-0.066 0,38.436 0.051,76.871 -0.016,115.307 -0.2,9.38 -1.58,19.758 -8.449,26.727 -9.563,9.031 -27.193,7.086 -34.361,-4.058 -6.918,-10.511 -7.801,-23.583 -8.083,-35.808 -0.083,-34.061 0,-68.107 -0.033,-102.168 -25.28,-0.016 -50.544,-0.016 -75.808,0 C -0.016,-187.422 -0.016,-93.719 0,0"
           style="fill:#016237;fill-opacity:1;fill-rule:nonzero;stroke:none"
           id="path933" />
      </g>
      <g
         id="g935"
         transform="translate(1792.9238,634.375)">
        <path
           d="m 0,0 c 4.124,10.095 14.453,17.313 25.396,17.53 16.049,0.216 32.132,0 48.199,0.066 V -1.165 C 71.731,-15.568 58.377,-27.277 43.741,-26.461 28.407,-26.478 13.089,-26.445 -2.229,-26.445 -1.93,-17.63 -3.493,-8.366 0,0"
           style="fill:#016237;fill-opacity:1;fill-rule:nonzero;stroke:none"
           id="path937" />
      </g>
      <g
         id="g939"
         transform="translate(1223.373,643.9873)">
        <path
           d="m 0,0 c 25.265,0.034 50.544,0.017 75.824,0.017 0.017,-18.694 -0.051,-37.388 0.033,-56.082 13.023,0 26.029,0.017 39.051,0 0.017,-18.028 0.017,-36.058 0,-54.086 -13.022,-0.016 -26.062,0 -39.084,-0.016 0.05,-21.422 -0.099,-42.86 0.067,-64.282 0.25,-8.515 1.862,-18.81 9.995,-23.417 8.898,-4.607 19.427,-3.293 28.873,-1.398 0.366,-18.593 0.05,-37.221 0.183,-55.832 -20.042,-5.721 -41.347,-6.353 -61.886,-3.31 -14.753,2.346 -29.921,7.967 -39.651,19.826 -10.494,12.673 -13.288,29.737 -13.387,45.737 0.033,27.508 -0.134,55.001 0.099,82.51 -17.563,0.265 -35.126,0.298 -52.656,-0.018 0.233,-48.747 0.017,-97.511 0.1,-146.274 -23.434,-0.051 -46.851,-0.018 -70.286,-0.018 -0.049,7.784 0.067,15.568 -0.083,23.335 -9.363,-11.675 -21.604,-21.389 -36.157,-25.596 -18.195,-5.305 -38.386,-4.274 -55.848,3.176 -14.454,6.187 -25.93,18.345 -32.117,32.715 -6.037,13.621 -8.049,28.69 -8.082,43.492 0,41.146 -0.017,82.31 0.016,123.456 25.247,0.033 50.494,-0.016 75.741,0.017 0.15,-38.386 0,-76.789 0.082,-115.191 0.184,-8.748 1.315,-18.212 6.986,-25.281 5.822,-7.3 16.516,-8.698 24.981,-5.886 6.636,2.228 11.409,8.016 14.004,14.336 4.174,10.012 4.84,21.055 4.939,31.783 0.017,33.413 -0.016,66.809 0.017,100.222 42.743,0.017 85.486,0.066 128.229,0 C 0.018,-37.371 0,-18.677 0,0"
           style="fill:#016237;fill-opacity:1;fill-rule:nonzero;stroke:none"
           id="path941" />
      </g>
      <g
         id="g943"
         transform="translate(1424.6162,469.0557)">
        <path
           d="M 0,0 C -15.301,-6.619 -15.218,-32.581 0.582,-38.469 12.906,-42.876 28.59,-39.2 36.024,-27.941 43.509,-17.446 42.228,-3.875 42.41,8.316 28.175,6.437 13.238,6.038 0,0 m -41.047,112.347 c 25.596,13.339 55.716,14.52 83.857,11.376 24.349,-2.81 49.829,-13.837 62.12,-36.19 13.621,-23.384 10.094,-51.326 10.544,-77.188 0.482,-30.719 -2.146,-62.152 6.254,-92.089 -22.753,-0.016 -45.505,0.033 -68.257,-0.033 -2.296,8.448 -2.994,17.18 -3.326,25.879 -11.56,-15.036 -28.307,-26.162 -47.102,-29.571 -22.901,-4.275 -48.714,-1.347 -67.241,13.787 -21.239,17.115 -27.043,49.213 -15.85,73.562 8.382,17.28 26.627,26.66 44.191,32.082 25.379,7.617 51.957,10.062 78.267,12.257 0.134,9.73 0.433,20.923 -6.702,28.524 -11.709,11.409 -35.791,7.135 -39.55,-10.029 -24.083,-0.049 -48.166,-0.033 -72.231,0 3.526,20.224 16.781,38.237 35.026,47.633"
           style="fill:#016237;fill-opacity:1;fill-rule:nonzero;stroke:none"
           id="path945" />
      </g>
      <g
         id="g947"
         transform="translate(1633.876,564.4053)">
        <path
           d="m 0,0 c 10.877,14.22 26.66,24.864 44.489,27.775 21.738,3.576 46.02,-0.183 63.068,-15.019 14.801,-12.756 21.903,-32.232 23.866,-51.258 1.446,-14.353 0.548,-28.806 0.814,-43.192 -0.033,-31.8 0.034,-63.6 -0.033,-95.416 -25.264,0.033 -50.526,0 -75.773,0.016 -0.035,37.921 0,75.858 -0.017,113.778 -0.083,9.147 -1.048,19.059 -6.869,26.51 -6.503,8.216 -19.06,9.33 -28.008,4.807 C 13.305,-36.34 9.43,-45.604 7.533,-54.252 4.374,-69.271 5.787,-84.722 5.472,-99.956 c 0,-25.713 0.015,-51.425 0,-77.138 h -75.808 c -0.017,66.876 -0.017,133.736 0,200.611 23.418,0.017 46.835,0.017 70.269,0 C -0.051,15.684 -0.134,7.85 0,0"
           style="fill:#016237;fill-opacity:1;fill-rule:nonzero;stroke:none"
           id="path949" />
      </g>
      <g
         id="g951"
         transform="translate(683.7097,586.126)">
        <path
           d="m 0,0 c 15.152,5.938 32.1,6.204 47.833,2.628 0,-21.555 -0.017,-43.126 0,-64.697 -17.547,3.111 -37.487,4.574 -52.955,-5.971 -14.636,-9.946 -19.925,-28.523 -20.391,-45.371 -0.249,-28.456 -0.033,-56.913 -0.116,-85.37 -25.263,-0.016 -50.543,-0.016 -75.807,0 -0.016,66.859 -0.016,133.718 0,200.577 23.417,0.017 46.851,0.017 70.269,0 0.033,-9.28 -0.033,-18.561 0.033,-27.84 C -23.001,-15.084 -13.006,-4.923 0,0"
           style="fill:#016237;fill-opacity:1;fill-rule:nonzero;stroke:none"
           id="path953" />
      </g>
      <g
         id="g955"
         transform="translate(1790.6953,587.9062)">
        <path
           d="M 0,0 C 25.279,0.049 50.543,0 75.823,0.016 V -200.562 C 50.56,-200.578 25.297,-200.544 0.05,-200.578 -0.051,-133.719 0.017,-66.859 0,0"
           style="fill:#016237;fill-opacity:1;fill-rule:nonzero;stroke:none"
           id="path957" />
      </g>
    </g>
  </g>
</svg>
